<svg width="750" height="700" viewBox="0 0 750 700" fill="none" xmlns="http://www.w3.org/2000/svg">
<path d="M350 0.390544C335.156 0.195244 321.094 6.64054 311.523 17.9687L150 200H100C45.3125 200 0 242.187 0 300V400C0 454.492 45.5078 500 100 500H150L311.523 682.031C322.07 694.726 336.133 700.195 350 700V0.390544Z" fill="#EEB868"/>
<path d="M500 200C486.719 200 474.023 205.273 464.648 214.648C445.117 234.18 445.117 265.82 464.648 285.352L529.297 350L464.648 414.648C445.117 434.18 445.117 465.82 464.648 485.352C484.18 504.883 515.82 504.883 535.352 485.352L600 420.703L664.648 485.352C684.18 504.883 715.82 504.883 735.352 485.352C754.883 465.82 754.883 434.18 735.352 414.648L670.703 350L735.352 285.352C754.883 265.82 754.883 234.18 735.352 214.648C725.977 205.273 713.281 200 700 200C686.719 200 674.023 205.273 664.648 214.648L600 279.297L535.352 214.648C525.977 205.273 513.281 200 500 200Z" fill="#EEB868"/>
</svg>
