<svg width="800" height="700" viewBox="0 0 800 700" fill="none" xmlns="http://www.w3.org/2000/svg">
<path d="M350 0.390544C335.156 0.195244 321.094 6.64054 311.523 17.9687L150 200H100C45.3125 200 0 242.187 0 300V400C0 454.492 45.5078 500 100 500H150L311.523 682.031C322.07 694.726 336.133 700.195 350 700V0.390544ZM673.047 48.4374C663.477 48.2421 653.711 51.1718 645.117 56.8359C622.266 72.4609 616.211 103.516 631.641 126.367C722.852 261.719 722.852 438.281 631.641 573.633C616.211 596.484 622.266 627.539 645.117 643.164C667.969 658.594 699.023 652.539 714.648 629.687C771.484 545.117 800 447.656 800 350C800 252.344 771.484 154.883 714.648 70.3124C704.883 56.0546 689.063 48.4374 673.047 48.4374ZM501.953 149.414C490.82 149.023 479.297 152.344 469.727 159.57C456.641 169.531 450 184.57 450 199.805V202.734C450.586 212.305 453.711 221.484 459.961 229.492C513.672 300.977 513.672 399.023 459.961 470.312C453.711 478.516 450.586 487.695 450 497.07V500.195C450 515.43 456.641 530.469 469.727 540.43C491.797 557.031 523.047 552.539 539.648 530.469C579.883 477.148 600 413.672 600 350C600 286.328 579.883 222.852 539.648 169.336C530.469 157.031 516.406 150.195 501.953 149.414Z" fill="#EEB868"/>
</svg>
